<svg width="47" height="47" viewBox="0 0 47 47" fill="none" xmlns="http://www.w3.org/2000/svg">
<path d="M25.0397 23.5874C22.8613 21.7397 20.0867 20.7222 17.2272 20.7222C10.5626 20.7222 5.14062 26.1442 5.14062 32.8087V35.343C5.14062 37.6043 6.74569 39.5409 8.96323 39.9635H25.4913C27.7087 39.5409 29.3139 37.6043 29.3139 35.343V33.5795V32.8087C29.3138 29.252 27.756 25.891 25.0397 23.5874Z" fill="white"/>
<path d="M37.6916 13.9068C37.7189 11.4001 35.709 9.34586 33.2023 9.31854C30.6956 9.29121 28.6413 11.3012 28.614 13.8079C28.5867 16.3146 30.5966 18.3688 33.1033 18.3962C35.61 18.4235 37.6643 16.4135 37.6916 13.9068Z" fill="white" stroke="white"/>
<path d="M17.2272 19.8043C20.7474 19.8043 23.6113 16.9404 23.6113 13.4202C23.6113 9.9001 20.7474 7.03613 17.2272 7.03613C13.707 7.03613 10.8431 9.90001 10.8431 13.4201C10.8431 16.9403 13.707 19.8043 17.2272 19.8043Z" fill="white"/>
<path d="M33.1548 19.314C30.231 19.314 27.5608 20.7417 25.9366 23.1527C25.9802 23.1921 26.0228 23.2324 26.0657 23.2722C26.1032 23.307 26.1412 23.3414 26.1783 23.3765C26.2299 23.4255 26.2803 23.4755 26.3311 23.5251C26.3636 23.5571 26.3967 23.5884 26.4289 23.6206C26.4906 23.6826 26.5512 23.7454 26.6116 23.8084C26.6316 23.8293 26.6522 23.8496 26.6721 23.8707C26.7522 23.9552 26.8311 24.0407 26.9086 24.1272C26.9243 24.1447 26.9393 24.1627 26.9549 24.1801C27.0165 24.2494 27.0777 24.3189 27.1376 24.3894C27.1625 24.4186 27.1865 24.4486 27.2112 24.4781C27.2608 24.5375 27.3105 24.5968 27.3589 24.6568C27.3865 24.6911 27.4131 24.7259 27.4404 24.7605C27.4847 24.8166 27.5293 24.8728 27.5726 24.9297C27.6009 24.9667 27.6282 25.0045 27.656 25.0417C27.6971 25.0969 27.7384 25.1519 27.7786 25.2077C27.8069 25.2468 27.8342 25.2865 27.862 25.3259C27.9005 25.3807 27.9393 25.4353 27.9769 25.4906C28.0047 25.5313 28.0316 25.5726 28.0589 25.6135C28.0953 25.6683 28.132 25.723 28.1676 25.7784C28.1946 25.8203 28.2207 25.8628 28.2473 25.905C28.2819 25.9602 28.3165 26.0152 28.3502 26.071C28.3762 26.114 28.4018 26.1574 28.4273 26.2008C28.46 26.2562 28.4929 26.3118 28.5249 26.3677C28.55 26.4119 28.5746 26.4564 28.5993 26.5007C28.6303 26.5566 28.6613 26.6126 28.6915 26.669C28.7157 26.7141 28.7393 26.7594 28.7629 26.8048C28.7922 26.8611 28.8215 26.9176 28.8499 26.9744C28.873 27.0203 28.8955 27.0666 28.9181 27.1128C28.9458 27.1696 28.9734 27.2265 29.0003 27.2838C29.0222 27.3306 29.0438 27.3775 29.0652 27.4246C29.0912 27.4819 29.1169 27.5393 29.1422 27.597C29.1631 27.6445 29.1835 27.6923 29.2038 27.7402C29.2283 27.798 29.2523 27.8559 29.2759 27.9141C29.2956 27.9622 29.3148 28.0106 29.3338 28.059C29.3567 28.1175 29.3792 28.176 29.4013 28.2349C29.4196 28.2835 29.4377 28.3325 29.4554 28.3814C29.4767 28.4403 29.4975 28.4993 29.5181 28.5586C29.5351 28.6081 29.5521 28.6576 29.5686 28.7072C29.5883 28.7666 29.6074 28.8262 29.6263 28.8858C29.6421 28.9357 29.6578 28.9857 29.673 29.0358C29.6911 29.0957 29.7087 29.156 29.7259 29.2162C29.7404 29.2666 29.7548 29.317 29.7688 29.3675C29.7853 29.428 29.8012 29.4886 29.8168 29.5494C29.83 29.6002 29.8432 29.6508 29.8556 29.7018C29.8707 29.7628 29.8848 29.8242 29.899 29.8855C29.9108 29.9366 29.9227 29.9876 29.9338 30.0389C29.9473 30.1006 29.9597 30.1625 29.9723 30.2245C29.9826 30.2757 29.9933 30.3268 30.003 30.3782C30.0149 30.4409 30.0257 30.5037 30.0368 30.5667C30.0457 30.6177 30.0548 30.6687 30.0632 30.7199C30.0735 30.7835 30.0827 30.8474 30.0921 30.9112C30.0995 30.9622 30.1074 31.0128 30.1143 31.0638C30.123 31.1287 30.1306 31.1938 30.1384 31.2588C30.1443 31.3091 30.1509 31.3593 30.1564 31.4097C30.1635 31.4764 30.1694 31.5434 30.1755 31.6103C30.1801 31.6594 30.1852 31.7082 30.1891 31.7574C30.1948 31.8274 30.199 31.8977 30.2035 31.968C30.2065 32.0142 30.2102 32.0603 30.2127 32.1066C30.2169 32.1843 30.2194 32.2622 30.2223 32.3401C30.2237 32.3792 30.2259 32.4182 30.2269 32.4573C30.23 32.5743 30.2317 32.6917 30.2317 32.8092V33.121H39.1792C40.7346 32.8188 41.8594 31.458 41.8594 29.8697V28.0185C41.8594 23.2188 37.9545 19.314 33.1548 19.314Z" fill="white"/>
</svg>
