<svg width="38" height="38" viewBox="0 0 38 38" fill="none" xmlns="http://www.w3.org/2000/svg">
<path d="M19 23.75C21.6234 23.75 23.75 21.6234 23.75 19C23.75 16.3766 21.6234 14.25 19 14.25C16.3766 14.25 14.25 16.3766 14.25 19C14.25 21.6234 16.3766 23.75 19 23.75Z" stroke="white" stroke-width="2" stroke-miterlimit="10" stroke-linecap="round" stroke-linejoin="round"/>
<path d="M32.9626 12.3096L31.7751 10.2529C31.1196 9.11644 29.6673 8.72812 28.5309 9.38362L27.9062 9.74463C25.5312 11.115 22.5625 9.40144 22.5625 6.6595V5.9375C22.5625 4.62531 21.4997 3.5625 20.1875 3.5625H17.8125C16.5003 3.5625 15.4375 4.62531 15.4375 5.9375V6.6595C15.4375 9.40144 12.4687 11.1162 10.0937 9.74463L9.46912 9.38362C8.33268 8.72812 6.88037 9.11644 6.22487 10.2529L5.03737 12.3096C4.38187 13.4461 4.77018 14.8984 5.90662 15.5539L6.53124 15.9149C8.90624 17.2864 8.90624 20.7136 6.53124 22.0851L5.90662 22.4461C4.77018 23.1016 4.38187 24.5539 5.03737 25.6904L6.22487 27.7471C6.88037 28.8836 8.33268 29.2719 9.46912 28.6164L10.0937 28.2554C12.4687 26.8838 15.4375 28.5986 15.4375 31.3405V32.0625C15.4375 33.3747 16.5003 34.4375 17.8125 34.4375H20.1875C21.4997 34.4375 22.5625 33.3747 22.5625 32.0625V31.3405C22.5625 28.5986 25.5312 26.8838 27.9062 28.2554L28.5309 28.6164C29.6673 29.2719 31.1196 28.8836 31.7751 27.7471L32.9626 25.6904C33.6181 24.5539 33.2298 23.1016 32.0934 22.4461L31.4687 22.0851C29.0937 20.7136 29.0937 17.2864 31.4687 15.9149L32.0934 15.5539C33.2298 14.8984 33.6193 13.4461 32.9626 12.3096Z" stroke="white" stroke-width="2" stroke-miterlimit="10" stroke-linecap="round" stroke-linejoin="round"/>
</svg>
