<svg width="84" height="77" viewBox="0 0 84 77" fill="none" xmlns="http://www.w3.org/2000/svg">
<path d="M78.7141 37.7419C56.9808 36.5817 35.3199 35.5469 13.5866 34.3866C8.89848 34.0843 8.94906 41.4106 13.5648 41.5876C35.2981 42.7478 56.959 43.7826 78.6923 44.9428C83.3805 45.2452 83.4023 38.0443 78.7141 37.7419Z" fill="black"/>
<path d="M47.6384 7.37123C32.7715 15.7875 18.1023 24.2567 3.23533 32.673C1.22929 33.8312 0.757591 36.7783 2.54267 38.4224C11.3427 46.7153 21.0009 54.1783 31.0689 60.9034C34.9234 63.5259 38.558 57.0811 34.6505 54.6563C24.9974 48.3604 16.0049 41.1817 7.54739 33.1925C7.34063 35.1508 7.06144 36.9836 6.85467 38.9419C21.7216 30.5256 36.3908 22.0564 51.2578 13.6401C55.2698 11.3237 51.6505 5.05485 47.6384 7.37123Z" fill="black"/>
</svg>
