<svg width="77" height="77" viewBox="0 0 77 77" fill="none" xmlns="http://www.w3.org/2000/svg">
<circle cx="38.7579" cy="38.8316" r="38.0211" fill="#6E8F7B"/>
<mask id="mask0_8_913" style="mask-type:alpha" maskUnits="userSpaceOnUse" x="0" y="0" width="77" height="77">
<circle cx="38.7579" cy="38.8316" r="38.0211" fill="#FED18F"/>
</mask>
<g mask="url(#mask0_8_913)">
<path d="M52.4008 31.6752C52.4008 33.9444 52.1588 36.126 51.7126 38.1611C51.6298 38.5391 51.5399 38.9119 51.4432 39.2794C49.5099 46.6265 44.859 51.804 39.4289 51.804C35.2386 51.804 31.5123 48.721 29.1408 43.937C28.3771 42.3964 27.7539 40.6794 27.3009 38.8321C26.7556 36.6083 26.457 34.1959 26.457 31.6752C26.457 30.6101 25.907 29.3407 26.0097 28.3204C26.2785 25.65 26.029 23.3771 26.9043 21.1635C27.8046 18.8864 27.973 16.6849 29.3645 15.1248C31.4982 12.7326 36.5953 11.5464 39.4289 11.5464C42.5181 11.5464 46.1471 12.3274 48.375 15.1248C51.069 18.5076 52.0803 24.4253 52.3621 30.1096C52.3877 30.6262 52.4008 31.1483 52.4008 31.6752Z" fill="#FFDFC1"/>
<path d="M26.457 31.6752C26.457 31.6752 25.5377 30.847 24.8914 31.0042C24.4671 31.1074 24.2096 31.2938 23.9968 31.6752C23.7414 32.1328 23.829 32.5206 23.9968 33.0171C24.1759 33.5469 24.6859 33.6152 24.8914 34.1354C25.1481 34.7852 24.7708 35.2363 24.8914 35.9246C25.0202 36.6596 25.179 37.0736 25.5624 37.7138C25.8497 38.1936 25.9269 38.6538 26.457 38.8321C26.7694 38.9371 27.3009 38.8321 27.3009 38.8321C26.7556 36.6083 26.457 34.1959 26.457 31.6752Z" fill="#FFDFC1"/>
<path d="M52.3621 30.1096C52.3877 30.6262 52.4008 31.1483 52.4008 31.6752C52.4008 33.9444 52.1588 36.126 51.7126 38.1611L52.3621 37.9375C52.3621 37.9375 52.8715 37.2512 53.0717 36.8192C53.3181 36.2876 53.4204 36.0548 53.519 35.4773C53.623 34.8685 53.519 33.9117 53.519 33.9117C53.519 33.9117 53.3756 32.9405 53.519 32.3461C53.6565 31.7766 53.9663 31.0042 53.9663 31.0042C53.9663 31.0042 54.2049 30.2517 53.9663 29.886C53.7943 29.6222 53.6086 29.4711 53.2954 29.4386C52.8489 29.3924 52.3621 30.1096 52.3621 30.1096Z" fill="#FFDFC1"/>
<path d="M51.4432 39.2794C49.5099 46.6265 44.859 51.804 39.4289 51.804C35.2386 51.804 31.5123 48.721 29.1408 43.937V51.804L28.6935 52.6986L27.5752 53.3695L26.457 56.5007L28.6935 60.3028L34.0612 64.5522L45.2439 66.1178L53.519 64.1049L56.6502 60.3028L52.3621 52.6986H51.0588L51.4432 39.2794Z" fill="#FFDFC1"/>
<path d="M35.6267 14.9004H38.7579C38.7579 14.9004 40.8002 14.7136 42.1127 14.6767C43.0731 14.6497 43.6139 14.6184 44.5729 14.6767C45.3623 14.7247 45.871 14.5618 46.5857 14.9004C47.0912 15.1398 47.4696 15.2872 47.704 15.795C47.9236 16.2708 47.5233 16.645 47.704 17.1369C47.8546 17.5468 48.0929 17.6981 48.375 18.0315C48.7739 18.503 49.3236 18.5559 49.4932 19.1498C49.5892 19.4857 49.445 19.6984 49.4932 20.0444C49.5852 20.7032 49.8156 21.0434 50.1642 21.61C50.4573 22.0863 50.8429 22.2123 51.0588 22.7282C51.3623 23.4533 51.0271 23.9557 51.0588 24.7411C51.1191 26.2349 50.936 27.1611 51.5061 28.5432C51.7747 29.1942 52.4007 30.1088 52.4007 30.1088L53.0717 29.4378C53.0717 29.4378 53.166 26.9814 53.0717 25.4121C52.982 23.9197 52.8415 23.0891 52.6244 21.61C52.4054 20.1182 52.3105 19.2727 51.9534 17.8078C51.4955 15.9294 51.3895 14.7648 50.3879 13.1111C49.4594 11.5783 48.6949 10.8256 47.2567 9.75633C46.0651 8.87043 45.304 8.4557 43.9019 7.9671C42.1523 7.35742 41.0575 7.25307 39.2052 7.29614C37.6118 7.3332 36.7077 7.51467 35.1794 7.9671C33.2315 8.54377 32.193 9.10731 30.4827 10.2036C28.8633 11.2417 27.834 11.7955 26.6806 13.3348C25.6966 14.648 25.3218 15.5533 24.8914 17.1369C24.3411 19.1615 24.4441 20.268 24.6677 22.5046C24.8591 24.4185 24.6499 25.5166 24.8914 27.4249C25.0699 28.8355 25.5623 31.227 25.5623 31.227L26.6806 31.898C26.6806 31.898 26.4985 30.178 26.4569 29.2142C26.4193 28.3416 26.4569 26.9776 26.4569 26.9776C26.4569 26.9776 26.1553 25.0805 26.6806 24.0701C26.8259 23.7907 26.968 23.6705 27.1279 23.3992C27.3262 23.0627 27.4272 22.866 27.5752 22.5046C28.0761 21.2814 27.6217 20.4092 28.0225 19.1498C28.3779 18.0331 28.5762 17.333 29.3644 16.4659C30.1305 15.6233 30.7443 15.2605 31.8246 14.9004C33.2332 14.4308 34.1419 14.9004 35.6267 14.9004Z" fill="#CEA465"/>
<path fill-rule="evenodd" clip-rule="evenodd" d="M47.704 39.2786C47.704 39.2786 47.1612 38.196 46.5857 37.713C46.042 37.2566 45.558 37.1344 44.9663 36.9851C44.7739 36.9365 44.5701 36.8851 44.3492 36.8184C43.5783 36.5856 43.1312 36.4997 42.3363 36.3711C41.384 36.2169 40.8402 36.1841 39.8761 36.1474C39.6966 36.1406 39.5368 36.1305 39.3867 36.121C38.9531 36.0936 38.6004 36.0713 38.0869 36.1474C37.2673 36.2688 36.2977 36.632 35.8504 36.8184C35.1293 37.1188 34.2848 37.4893 34.2848 37.4893C34.2848 37.4893 33.3104 38.2566 32.9429 38.8312C32.6453 39.2966 32.4956 40.1732 32.4956 40.1732C32.4956 40.1732 31.5208 39.9611 30.93 39.7259C30.9006 39.7142 30.8716 39.7026 30.8428 39.6912C29.9467 39.3349 29.3677 39.1047 28.6935 38.3839C28.1201 37.771 27.9283 37.2782 27.6389 36.5343C27.6182 36.4812 27.597 36.4268 27.5752 36.3711C27.3435 35.7789 27.1279 34.8055 27.1279 34.8055C27.1279 34.8055 26.8617 37.2818 27.1279 38.8312C27.2805 39.7192 27.4909 40.2875 27.7545 40.9995C27.8385 41.2263 27.9279 41.4678 28.0225 41.7387C28.1258 42.0346 28.2151 42.3039 28.2992 42.5573C28.5936 43.4453 28.8234 44.1384 29.3644 45.0935C29.911 46.0585 30.3353 46.569 31.0063 47.3763C31.0541 47.4339 31.1032 47.4929 31.1537 47.5537C31.355 47.7964 31.5379 48.0246 31.7114 48.2411C32.4897 49.2121 33.0787 49.9469 34.2848 50.6849C35.2533 51.2775 35.8767 51.492 36.9687 51.8031C38.5734 52.2604 39.5542 52.377 41.2181 52.2504C42.465 52.1556 43.1945 52.0596 44.3492 51.5795C45.8493 50.9557 46.5686 50.2813 47.704 49.1193C48.8892 47.9063 49.4024 47.056 50.1642 45.5408C50.8715 44.1341 51.152 43.273 51.5061 41.7387C51.7788 40.5576 51.8372 39.8293 51.9279 38.7004C51.9361 38.5984 51.9445 38.4931 51.9534 38.3839C52.1237 36.2947 51.9534 33.0163 51.9534 33.0163L51.0588 35.7001C51.0588 35.7001 50.6662 37.1411 50.1642 37.9366C50.1129 38.0179 50.0652 38.0954 50.0195 38.1698C49.7406 38.6232 49.5356 38.9565 49.0459 39.2786C48.653 39.537 47.9277 39.7259 47.9277 39.7259L47.704 39.2786ZM44.9814 39.3155C44.7544 38.9435 44.5657 38.6343 44.1256 38.3839C43.2905 37.9088 41.6654 38.3839 41.6654 38.3839H39.8761C39.8761 38.3839 38.2194 38.175 37.1923 38.3839C37.1574 38.391 37.1229 38.398 37.0889 38.4049C36.2253 38.5799 35.649 38.6967 34.9558 39.2786C34.3803 39.7616 34.0256 40.1167 33.8375 40.8441C33.7063 41.3515 33.7254 41.6741 33.8375 42.1861C34.0138 42.991 34.2938 43.4846 34.9558 43.9753C35.2696 44.2079 35.4771 44.3077 35.8504 44.4226C35.9585 44.4559 36.0721 44.4955 36.1877 44.5358C36.7854 44.7445 37.434 44.9709 37.6396 44.4226C37.6396 44.4226 37.5847 43.5605 37.6396 43.3043C37.7195 42.9313 37.8785 42.88 38.1271 42.7998C38.243 42.7624 38.3783 42.7188 38.5342 42.6334C38.8993 42.4333 39.2164 42.551 39.5609 42.6788C39.7946 42.7656 40.041 42.857 40.3235 42.857C40.5421 42.857 40.7304 42.7773 40.9095 42.7013C41.1597 42.5953 41.3922 42.4968 41.6654 42.6334C41.7524 42.6769 41.8646 42.719 41.9844 42.764C42.3209 42.8903 42.7174 43.0392 42.7836 43.3043C42.9566 43.9961 42.9596 43.9958 43.1869 43.9782C43.2535 43.9731 43.3395 43.9664 43.4546 43.9753C43.9076 44.0101 44.1783 43.7923 44.4993 43.5339C44.5923 43.459 44.6894 43.3808 44.7965 43.3043C44.8827 43.2428 44.9658 43.1865 45.0454 43.1325C45.4305 42.8716 45.7351 42.6652 45.9148 42.1861C46.0988 41.6954 46.0567 41.3486 45.9148 40.8441C45.8127 40.4813 45.6532 40.2722 45.4595 40.0184C45.3915 39.9293 45.3193 39.8346 45.2438 39.7259C45.1436 39.5814 45.0602 39.4447 44.9814 39.3155Z" fill="#CEA465"/>
<path d="M27.5752 54.9344C27.7528 53.9742 28.6935 52.6979 28.6935 52.6979C28.6935 52.6979 25.248 54.2584 23.1022 55.3817C20.0498 56.9797 18.3877 57.9787 15.498 59.8548C12.2448 61.9668 10.5892 63.3967 7.44644 65.6698C4.91249 67.5025 2.96208 67.9637 0.960496 70.3665C-0.218761 71.7822 -0.688676 72.7379 -1.49969 74.3923C-2.2422 75.9069 -3.06526 78.418 -3.06526 78.418L85.0541 79.5363C85.0541 79.5363 85.215 76.9386 85.0541 75.2869C84.8096 72.7779 84.519 71.3252 83.4885 69.0246C82.9128 67.7393 82.4935 67.0565 81.6993 65.8934C80.374 63.9526 79.454 62.9544 77.6736 61.4204C74.0037 58.2584 70.9548 57.934 66.4909 56.0527C60.611 53.5746 51.0588 51.1323 51.0588 51.1323V52.6979C51.0588 52.6979 51.796 52.8031 52.1771 53.3689C52.9653 54.5392 53.3266 55.3258 53.519 56.7237C53.7736 58.5734 53.5632 59.8064 52.6244 61.4204C51.2082 63.8552 49.0912 64.302 46.3621 64.9988C43.8233 65.647 42.2332 65.4522 39.6525 64.9988C37.2856 64.583 35.9346 64.1594 33.8375 62.9859C31.8853 61.8936 29.3645 59.4075 29.3645 59.4075C29.3645 59.4075 27.2332 56.7845 27.5752 54.9344Z" fill="#565A65"/>
</g>
</svg>
