<svg width="350" height="253" viewBox="0 0 350 253" fill="none" xmlns="http://www.w3.org/2000/svg">
<path d="M0.409091 193.352V181.182H57.75V193.352H36.375V251H21.7841V193.352H0.409091ZM82.9858 252.023C77.6903 252.023 73.1108 250.898 69.2472 248.648C65.4063 246.375 62.4403 243.216 60.3494 239.17C58.2585 235.102 57.2131 230.386 57.2131 225.023C57.2131 219.614 58.2585 214.886 60.3494 210.841C62.4403 206.773 65.4063 203.614 69.2472 201.364C73.1108 199.091 77.6903 197.955 82.9858 197.955C88.2812 197.955 92.8494 199.091 96.6903 201.364C100.554 203.614 103.531 206.773 105.622 210.841C107.713 214.886 108.759 219.614 108.759 225.023C108.759 230.386 107.713 235.102 105.622 239.17C103.531 243.216 100.554 246.375 96.6903 248.648C92.8494 250.898 88.2812 252.023 82.9858 252.023ZM83.054 240.773C85.4631 240.773 87.4744 240.091 89.0881 238.727C90.7017 237.341 91.9176 235.455 92.7358 233.068C93.5767 230.682 93.9972 227.966 93.9972 224.92C93.9972 221.875 93.5767 219.159 92.7358 216.773C91.9176 214.386 90.7017 212.5 89.0881 211.114C87.4744 209.727 85.4631 209.034 83.054 209.034C80.6222 209.034 78.5767 209.727 76.9176 211.114C75.2813 212.5 74.0426 214.386 73.2017 216.773C72.3835 219.159 71.9744 221.875 71.9744 224.92C71.9744 227.966 72.3835 230.682 73.2017 233.068C74.0426 235.455 75.2813 237.341 76.9176 238.727C78.5767 240.091 80.6222 240.773 83.054 240.773ZM118.474 181.182H136.679L155.906 228.091H156.724L175.952 181.182H194.156V251H179.838V205.557H179.259L161.19 250.659H151.44L133.372 205.386H132.793V251H118.474V181.182ZM229.909 252.023C224.523 252.023 219.886 250.932 216 248.75C212.136 246.545 209.159 243.432 207.068 239.409C204.977 235.364 203.932 230.58 203.932 225.057C203.932 219.67 204.977 214.943 207.068 210.875C209.159 206.807 212.102 203.636 215.898 201.364C219.716 199.091 224.193 197.955 229.33 197.955C232.784 197.955 236 198.511 238.977 199.625C241.977 200.716 244.591 202.364 246.818 204.568C249.068 206.773 250.818 209.545 252.068 212.886C253.318 216.205 253.943 220.091 253.943 224.545V228.534H209.727V219.534H240.273C240.273 217.443 239.818 215.591 238.909 213.977C238 212.364 236.739 211.102 235.125 210.193C233.534 209.261 231.682 208.795 229.568 208.795C227.364 208.795 225.409 209.307 223.705 210.33C222.023 211.33 220.705 212.682 219.75 214.386C218.795 216.068 218.307 217.943 218.284 220.011V228.568C218.284 231.159 218.761 233.398 219.716 235.284C220.693 237.17 222.068 238.625 223.841 239.648C225.614 240.67 227.716 241.182 230.148 241.182C231.761 241.182 233.239 240.955 234.58 240.5C235.92 240.045 237.068 239.364 238.023 238.455C238.977 237.545 239.705 236.432 240.205 235.114L253.636 236C252.955 239.227 251.557 242.045 249.443 244.455C247.352 246.841 244.648 248.705 241.33 250.045C238.034 251.364 234.227 252.023 229.909 252.023ZM287.284 252.023C281.898 252.023 277.261 250.932 273.375 248.75C269.511 246.545 266.534 243.432 264.443 239.409C262.352 235.364 261.307 230.58 261.307 225.057C261.307 219.67 262.352 214.943 264.443 210.875C266.534 206.807 269.477 203.636 273.273 201.364C277.091 199.091 281.568 197.955 286.705 197.955C290.159 197.955 293.375 198.511 296.352 199.625C299.352 200.716 301.966 202.364 304.193 204.568C306.443 206.773 308.193 209.545 309.443 212.886C310.693 216.205 311.318 220.091 311.318 224.545V228.534H267.102V219.534H297.648C297.648 217.443 297.193 215.591 296.284 213.977C295.375 212.364 294.114 211.102 292.5 210.193C290.909 209.261 289.057 208.795 286.943 208.795C284.739 208.795 282.784 209.307 281.08 210.33C279.398 211.33 278.08 212.682 277.125 214.386C276.17 216.068 275.682 217.943 275.659 220.011V228.568C275.659 231.159 276.136 233.398 277.091 235.284C278.068 237.17 279.443 238.625 281.216 239.648C282.989 240.67 285.091 241.182 287.523 241.182C289.136 241.182 290.614 240.955 291.955 240.5C293.295 240.045 294.443 239.364 295.398 238.455C296.352 237.545 297.08 236.432 297.58 235.114L311.011 236C310.33 239.227 308.932 242.045 306.818 244.455C304.727 246.841 302.023 248.705 298.705 250.045C295.409 251.364 291.602 252.023 287.284 252.023ZM348.648 198.636V209.545H317.114V198.636H348.648ZM324.273 186.091H338.795V234.909C338.795 236.25 339 237.295 339.409 238.045C339.818 238.773 340.386 239.284 341.114 239.58C341.864 239.875 342.727 240.023 343.705 240.023C344.386 240.023 345.068 239.966 345.75 239.852C346.432 239.716 346.955 239.614 347.318 239.545L349.602 250.352C348.875 250.58 347.852 250.841 346.534 251.136C345.216 251.455 343.614 251.648 341.727 251.716C338.227 251.852 335.159 251.386 332.523 250.318C329.909 249.25 327.875 247.591 326.42 245.341C324.966 243.091 324.25 240.25 324.273 236.818V186.091Z" fill="white"/>
<g clip-path="url(#clip0_0_1)">
<path d="M231.639 46.1009C230.436 44.8943 228.483 44.8943 227.276 46.1009C226.072 47.3044 226.072 49.2578 227.276 50.4644C228.483 51.668 230.436 51.668 231.639 50.4644C232.846 49.2578 232.846 47.3044 231.639 46.1009Z" fill="white"/>
<path d="M114.724 49.7608C113.518 48.5542 111.564 48.5542 110.361 49.7608C109.154 50.9643 109.154 52.9209 110.361 54.1244C111.564 55.331 113.518 55.331 114.724 54.1244C115.928 52.9209 115.928 50.9643 114.724 49.7608Z" fill="white"/>
<path d="M249.096 46.1018L214.183 11.186C212.978 9.98122 211.025 9.98122 209.818 11.186C206.629 14.3753 191.518 29.486 188.434 32.5708L173.509 38.7186L153.146 35.8101L132.182 14.8465C131.195 13.859 130.033 13.9491 130 13.9424C129.182 13.9424 128.397 14.2676 127.818 14.8462L92.9033 49.7605C91.6991 50.965 91.6982 52.9199 92.9036 54.125L113.934 75.1521L116.337 87.1664L111.325 92.1789C107.103 96.3959 107.097 103.231 111.322 107.452C113.363 109.495 116.104 110.647 119.077 110.615C119.048 113.419 120.099 116.232 122.233 118.366C124.34 120.471 127.105 121.523 129.871 121.523C129.911 121.523 129.95 121.52 129.989 121.52C129.959 124.325 131.009 127.14 133.144 129.277C135.184 131.317 137.896 132.44 140.781 132.44C140.82 132.44 140.859 132.438 140.898 132.437C140.869 135.24 141.919 138.053 144.054 140.187C148.265 144.395 155.118 144.397 159.329 140.186L160.421 139.095L165.874 144.55C170.095 148.771 176.929 148.776 181.15 144.55C183.285 142.415 184.336 139.601 184.305 136.796C184.344 136.796 184.383 136.799 184.422 136.799C187.188 136.799 189.955 135.746 192.063 133.64C194.194 131.506 195.244 128.695 195.215 125.892C198.184 125.924 200.928 124.774 202.971 122.73C205.106 120.594 206.156 117.78 206.126 114.975C206.165 114.976 206.203 114.978 206.242 114.978C209.009 114.978 211.776 113.925 213.883 111.82C218.093 107.607 218.092 100.754 213.882 96.5446L212.386 95.0479L227.498 72.064L249.096 50.466C250.301 49.2609 250.301 47.3069 249.096 46.1018ZM99.4501 51.9423L130 21.3925L134.364 25.757L119.088 41.0334C117.883 42.2385 117.883 44.1925 119.088 45.3979C120.293 46.6029 122.247 46.6029 123.452 45.3979L138.729 30.1214L147.327 38.7195L116.777 69.2666L99.4501 51.9423ZM115.793 96.4394C115.792 96.44 115.79 96.4422 115.788 96.4446C115.79 96.4422 115.792 96.44 115.793 96.4394ZM122.231 103.09C120.432 104.891 117.506 104.909 115.687 103.088C113.877 101.28 113.876 98.3542 115.687 96.5446C115.693 96.5391 115.697 96.5344 115.702 96.5295C115.709 96.523 115.715 96.5168 115.721 96.5113C115.724 96.5079 115.727 96.5048 115.73 96.5017C115.958 96.2734 117.188 95.0445 122.234 89.9977C124.042 88.1881 126.97 88.1872 128.781 89.999C130.592 91.8104 130.586 94.739 128.781 96.5437C128.78 96.5443 128.78 96.5446 128.779 96.5452L122.231 103.09ZM126.596 114.001C124.792 112.197 124.792 109.259 126.595 107.454C126.596 107.453 126.597 107.453 126.598 107.452C126.598 107.451 126.599 107.451 126.599 107.45L133.143 100.909C133.144 100.908 133.144 100.908 133.145 100.908C133.145 100.907 133.145 100.907 133.146 100.906C134.953 99.0995 137.881 99.0989 139.69 100.908C141.498 102.716 141.497 105.647 139.69 107.455L133.144 114C131.34 115.805 128.401 115.805 126.596 114.001ZM144.053 124.913C142.246 126.72 139.317 126.722 137.509 124.914C135.704 123.107 135.704 120.169 137.508 118.365L144.055 111.819C145.862 110.009 148.79 110.008 150.601 111.82C152.406 113.624 152.413 116.552 150.601 118.365L144.053 124.913ZM161.511 129.276L154.965 135.821C153.161 137.626 150.223 137.625 148.418 135.822C146.613 134.017 146.613 131.081 148.418 129.277L154.966 122.728C156.764 120.93 159.7 120.918 161.509 122.726C163.303 124.525 163.341 127.442 161.511 129.276ZM209.52 107.455C207.713 109.259 204.776 109.26 202.972 107.457C202.972 107.456 202.971 107.456 202.971 107.456L199.697 104.181C198.492 102.976 196.538 102.976 195.332 104.181C194.127 105.387 194.127 107.341 195.332 108.546L198.607 111.82C200.411 113.624 200.411 116.56 198.606 118.365C196.798 120.175 193.872 120.175 192.063 118.365C192.063 118.365 192.062 118.364 192.061 118.363L188.787 115.092C187.581 113.887 185.627 113.888 184.423 115.094C183.218 116.3 183.219 118.253 184.425 119.458L187.697 122.727C189.501 124.533 189.501 127.472 187.699 129.275C185.893 131.08 182.955 131.081 181.15 129.276L177.876 126.002C176.671 124.797 174.717 124.797 173.512 126.002C172.307 127.207 172.307 129.161 173.512 130.366L176.786 133.64C178.59 135.444 178.59 138.38 176.785 140.186C174.976 141.996 172.049 141.996 170.238 140.185L164.785 134.729L165.877 133.638C170.087 129.419 170.109 122.607 165.875 118.364C163.74 116.23 160.928 115.179 158.125 115.208C158.155 112.191 156.977 109.466 154.965 107.455C152.921 105.411 150.181 104.263 147.213 104.292C147.243 101.333 146.101 98.5903 144.054 96.5428C142.01 94.5002 139.271 93.3528 136.305 93.3827C136.337 90.3931 135.168 87.6573 133.145 85.6342C130.08 82.5701 125.636 81.7289 121.82 83.1127L120.126 74.6442L152.782 41.9916L162.27 43.3469L159.246 44.5931C158.869 44.7483 158.527 44.9763 158.239 45.2643L137.507 65.9957C133.297 70.2065 133.297 77.058 137.507 81.2688C141.732 85.4922 148.558 85.4941 152.784 81.2682L160.417 73.6323C161.622 72.4284 163.582 72.4281 164.784 73.631C170.605 79.4515 179.128 80.4745 185.861 77.2506L206.237 97.6269C206.243 97.6324 206.248 97.6383 206.254 97.6438L209.519 100.908C211.323 102.713 211.323 105.65 209.52 107.455ZM207.93 90.5902L190.97 73.6307L193.152 71.4496C194.357 70.2445 194.357 68.2905 193.152 67.0854C191.947 65.8803 189.993 65.8803 188.787 67.0854C186.869 68.9416 186.248 69.7995 184.72 70.8163C179.997 73.9764 173.443 73.561 169.149 69.2672C165.542 65.6594 159.668 65.6585 156.054 69.2675L148.42 76.9046C146.608 78.7164 143.685 78.7176 141.872 76.9046C140.068 75.1003 140.068 72.1643 141.872 70.3599L162.167 50.0645L189.452 38.8257L221.135 70.508L207.93 90.5902ZM225.094 65.739L194.544 35.1886L203.273 26.4593L218.548 41.7345C219.754 42.9396 221.707 42.9396 222.913 41.7345C224.118 40.5295 224.118 38.5754 222.913 37.3701L207.638 22.0949L212.001 17.7319L242.551 48.2823L225.094 65.739Z" fill="white"/>
</g>
<defs>
<clipPath id="clip0_0_1">
<rect width="158" height="158" fill="white" transform="translate(92)"/>
</clipPath>
</defs>
</svg>
